Coordinates
version=1
nRows=38
nColumns=12
inDegrees=yes

Units are S.I. units (second, meters, Newtons, ...)
Angles are in degrees

endheader
time	SC_y	SC_z	SC_x	AC_y	AC_z	AC_x	GH_y	GH_z	GH_yy	EL_x	PS_y
       0.0              -56.68         -2.295          68.92          52.26         -12.99         -9.722         -94.72          5.869         -127.1          134.6          130.7
   0.03503              -56.68         -2.296          68.91          52.26         -12.99         -9.721          -94.7          5.872         -127.1          134.6          130.7
   0.07006              -56.68         -2.296          68.91          52.25         -12.98          -9.72         -94.69          5.875         -127.1          134.6          130.7
    0.1051              -56.67         -2.296           68.9          52.25         -12.98         -9.719         -94.67          5.878         -127.1          134.6          130.7
    0.1401              -56.67         -2.296          68.89          52.24         -12.98         -9.717         -94.65          5.882         -127.1          134.5          130.7
    0.1752              -56.67         -2.296          68.88          52.24         -12.97         -9.716         -94.63          5.886         -127.1          134.5          130.7
    0.2102              -56.67         -2.296          68.87          52.24         -12.97         -9.715         -94.61          5.889         -127.1          134.5          130.7
    0.2452              -56.67         -2.297          68.86          52.23         -12.97         -9.713         -94.59          5.894         -127.1          134.5          130.7
    0.2802              -56.67         -2.297          68.84          52.23         -12.96         -9.711         -94.57          5.898         -127.1          134.5          130.7
    0.3153              -56.66         -2.297          68.83          52.22         -12.96         -9.709         -94.54          5.903         -127.1          134.5          130.7
    0.3503              -56.66         -2.297          68.81          52.22         -12.95         -9.707         -94.52          5.908         -127.1          134.4          130.7
    0.3853              -56.66         -2.297           68.8          52.21         -12.95         -9.705         -94.49          5.914         -127.1          134.4          130.7
    0.4204              -56.66         -2.298          68.78           52.2         -12.94         -9.703         -94.46           5.92         -127.0          134.4          130.8
    0.4554              -56.65         -2.298          68.76           52.2         -12.93           -9.7         -94.43          5.926         -127.0          134.4          130.8
    0.4904              -56.65         -2.298          68.75          52.19         -12.93         -9.698         -94.39          5.933         -127.0          134.4          130.8
    0.5255              -56.65         -2.299          68.72          52.18         -12.92         -9.695         -94.35          5.941         -127.0          134.3          130.8
    0.5605              -56.65         -2.299           68.7          52.17         -12.91         -9.691         -94.31          5.949         -127.0          134.3          130.8
    0.5955              -56.64         -2.299          68.68          52.16          -12.9         -9.688         -94.26          5.958         -127.0          134.3          130.8
    0.6305              -56.64           -2.3          68.65          52.15         -12.89         -9.684         -94.21          5.968         -127.0          134.2          130.8
    0.6656              -56.63           -2.3          68.62          52.14         -12.88          -9.68         -94.16          5.979         -127.0          134.2          130.8
    0.7006              -56.63         -2.301          68.59          52.13         -12.87         -9.675          -94.1          5.991         -126.9          134.1          130.8
    0.7356              -56.62         -2.301          68.55          52.12         -12.86          -9.67         -94.03          6.004         -126.9          134.1          130.9
    0.7707              -56.62         -2.302          68.51           52.1         -12.84         -9.665         -93.96          6.018         -126.9          134.0          130.9
    0.8057              -56.61         -2.302          68.47          52.08         -12.83         -9.658         -93.88          6.034         -126.9          134.0          130.9
    0.8407               -56.6         -2.303          68.42          52.06         -12.81         -9.651         -93.78          6.052         -126.9          133.9          130.9
    0.8758               -56.6         -2.304          68.36          52.04         -12.79         -9.644         -93.68          6.072         -126.8          133.8          130.9
    0.9108              -56.59         -2.305           68.3          52.02         -12.77         -9.635         -93.57          6.094         -126.8          133.7          131.0
    0.9458              -56.58         -2.306          68.23          51.99         -12.75         -9.625         -93.44          6.119         -126.8          133.6          131.0
    0.9808              -56.56         -2.307          68.15          51.96         -12.72         -9.614          -93.3          6.148         -126.7          133.5          131.0
     1.016              -56.55         -2.309          68.06          51.93         -12.69         -9.602         -93.14           6.18         -126.7          133.4          131.1
     1.051              -56.54          -2.31          67.96          51.89         -12.65         -9.588         -92.95          6.216         -126.6          133.3          131.1
     1.086              -56.52         -2.312          67.85          51.85         -12.61         -9.571         -92.74          6.258         -126.6          133.1          131.2
     1.121               -56.5         -2.314          67.71           51.8         -12.56         -9.553         -92.49          6.307         -126.5          132.9          131.2
     1.156              -56.48         -2.316          67.56          51.74         -12.51         -9.531          -92.2          6.363         -126.4          132.7          131.3
     1.191              -56.45         -2.319          67.37          51.67         -12.44         -9.505         -91.87          6.429         -126.3          132.4          131.4
     1.226              -56.42         -2.322          67.16          51.59         -12.37         -9.475         -91.47          6.507         -126.2          132.1          131.5
     1.261              -56.38         -2.326           66.9          51.49         -12.28         -9.439          -91.0          6.599         -126.1          131.8          131.6
     1.296              -56.33         -2.331           66.6          51.37         -12.17         -9.396         -90.44           6.71         -125.9          131.3          131.7
